<svg width="428" height="120" viewBox="0 0 428 120" fill="none" xmlns="http://www.w3.org/2000/svg">
<path fill-rule="evenodd" clip-rule="evenodd" d="M294.133 38.5229V50.7085L291.185 48.8342C271.406 36.2595 250.437 66.7909 265.298 86.5262C271.568 94.8522 287.332 97.0417 293.287 90.4134C294.443 89.126 294.456 89.1337 294.773 91.2751L295.094 93.4357H300.538H305.982L306.2 89.5832C306.319 87.4643 306.212 72.3675 305.963 56.034L305.51 26.3373H299.822H294.133V38.5229ZM171.548 28.1454C170.926 29.1535 146.815 91.8915 146.815 92.5002C146.815 92.8521 149.65 93.1147 153.446 93.1147H160.076L162.975 85.2491L165.873 77.3835L178.683 77.2101L191.493 77.0361L193.111 81.3837C194.002 83.7742 195.354 87.3924 196.119 89.4227L197.508 93.1147H204.187C209.093 93.1147 210.872 92.9015 210.886 92.3121C210.897 91.8709 205.209 77.1343 198.245 59.5655L185.583 27.6215H178.727C174.956 27.6215 171.725 27.8571 171.548 28.1454ZM407.931 34.4706C407.696 34.7056 407.504 36.9941 407.504 39.5547C407.504 46.2395 406.077 48.1684 401.131 48.1684H399.177V53.6261V59.0839H403.34H407.504V71.8249C407.504 90.954 411.596 96.1441 425.082 94.117L428 93.6778V88.2598V82.8412H424.92C419.457 82.8412 419.383 82.673 419.152 69.7317L418.95 58.4418H423.475H428V52.984V47.5263H423.516H419.033V40.7843V34.0424H413.695C410.759 34.0424 408.165 34.235 407.931 34.4706ZM186.52 65.0232C186.524 65.2878 182.816 65.5048 178.28 65.5048H170.032L174.232 54.2515L178.432 42.9976L182.472 53.7699C184.694 59.6945 186.516 64.7587 186.52 65.0232ZM323.893 47.2264C317.797 49.484 313.897 54.9527 313.897 61.2432C313.897 69.069 318.205 73.077 329.509 75.7692C336.827 77.5119 339.098 80.4886 335.36 83.4364C330.989 86.8825 322.956 83.1668 322.956 77.6994C322.956 77.2737 322.596 77.056 322.155 77.2159C321.715 77.3758 319.409 78.0275 317.031 78.6644C312.042 79.9993 311.907 80.3351 314.359 85.2683C321.927 100.493 349.124 96.5665 349.203 80.2382C349.242 72.1761 343.506 67.0888 331.923 64.9109C325.454 63.6947 323.524 61.3749 326.296 58.1452C329.2 54.7607 335.544 56.2144 337.41 60.6923L338.307 62.8433L342.961 61.5412C348.688 59.9379 348.705 59.9231 347.881 56.9322C345.656 48.8547 333.156 43.7964 323.893 47.2264ZM368.552 47.2033C361.957 49.0628 356.755 54.2605 355.842 59.9032L355.485 62.1036L359.877 63.1901C362.292 63.7878 364.774 64.428 365.39 64.6129C366.009 64.7985 366.511 64.6136 366.511 64.2007C366.511 57.3425 379.989 54.1738 381.61 60.6499C382.456 64.0273 381.921 64.4864 376.113 65.3597C356.957 68.2395 350.57 74.7888 355.784 86.2045C359.821 95.0467 375.396 97.9721 381.161 90.972C382.421 89.4419 383.05 89.6493 383.282 91.67L383.484 93.4357H388.849H394.214L394.097 76.6097C393.972 58.6999 393.761 57.0523 391.096 53.1966C387.384 47.8274 376.553 44.9476 368.552 47.2033ZM213.428 63.4617C213.428 81.8389 213.839 84.1498 217.93 88.8088C223.464 95.1116 234.184 96.32 240.81 91.3881L242.892 89.8387V91.4767C242.892 93.1115 242.904 93.1147 248.657 93.1147H254.421V84.8715C254.421 80.3371 254.231 70.0797 253.998 62.0773L253.576 47.5263H247.625H241.674L241.483 63.3082L241.291 79.0895L238.898 81.2867C234.275 85.5316 227.481 83.7498 225.711 77.8284C225.234 76.2335 224.958 70.2075 224.958 61.4172V47.5263H219.193H213.428V63.4617ZM289.019 59.2444C296.906 64.6181 294.895 81.0132 286.076 83.2323C273.068 86.505 267.034 65.2107 279.081 58.5471C281.38 57.2758 286.674 57.6475 289.019 59.2444ZM382.287 76.2181C381.298 83.4435 373.153 87.6319 368.724 83.1912C363.914 78.3703 369.153 74.4061 381.81 73.2882C382.504 73.2272 382.608 73.8661 382.287 76.2181Z" fill="white"/>
<path fill-rule="evenodd" clip-rule="evenodd" d="M53.7872 74.9757C52.152 78.4186 47.1675 88.6978 42.7108 97.8174C38.2535 106.938 34.7057 114.488 34.8267 114.597C34.9472 114.706 37.1608 115.555 39.7459 116.482C67.8176 126.559 99.2533 114.351 113.111 87.9883C115.792 82.8888 119.273 72.686 119.273 69.9276C119.273 68.7558 118.229 68.7153 88.0168 68.7153H56.7611L53.7872 74.9757Z" fill="#007839"/>
<path fill-rule="evenodd" clip-rule="evenodd" d="M45.3837 1.34455C7.87978 10.5817 -11.228 53.6505 6.94847 87.978C10.2727 94.2563 13.3696 98.4472 18.2234 103.234L21.6482 106.611L47.0817 54.3055C61.0705 25.5372 72.5158 1.7343 72.5158 1.41069C72.5158 -0.434683 52.8021 -0.48284 45.3837 1.34455Z" fill="#DAD800"/>
<path fill-rule="evenodd" clip-rule="evenodd" d="M85.0973 11.0875C83.8938 13.6482 78.8408 24.0443 73.8691 34.1912C68.8975 44.3382 64.8296 52.7836 64.8296 52.9589C64.8296 53.1348 77.2235 53.3563 92.3716 53.452C117.418 53.61 119.914 53.5316 119.914 52.5846C119.911 39.6137 107.153 19.183 93.2613 9.90288C86.8991 5.65353 87.708 5.53602 85.0973 11.0875Z" fill="#8ABB2A"/>
</svg>
